<?xml version="1.0" encoding="utf-8"?>
<svg xmlns="http://www.w3.org/2000/svg" viewBox="0 0 50 50" fill="#000000"><path d="M 16.597656 4.011719 C 15.828125 4.011719 15.496094 4.199219 14.988281 4.507813 C 14.480469 4.8125 13.960938 5.277344 13.507813 5.917969 C 12.605469 7.203125 12 9.132813 12 12 C 12 13.289063 12.101563 14.648438 12.289063 16.050781 C 10.960938 16.363281 9.714844 16.730469 8.59375 17.167969 C 6.832031 17.851563 5.335938 18.675781 4.167969 19.734375 C 3 20.792969 2.128906 22.1875 2.042969 23.796875 C 1.972656 25.125 2.429688 26.449219 3.1875 27.394531 C 3.941406 28.339844 4.863281 28.980469 5.890625 29.667969 C 6.8125 30.277344 8.054688 30.027344 8.667969 29.109375 C 9.277344 28.1875 9.027344 26.945313 8.109375 26.332031 C 7.175781 25.714844 6.570313 25.222656 6.3125 24.894531 C 6.050781 24.570313 6.011719 24.5 6.039063 24.007813 L 6.039063 24.003906 C 6.054688 23.703125 6.214844 23.28125 6.859375 22.695313 C 7.503906 22.109375 8.597656 21.453125 10.039063 20.894531 C 10.914063 20.554688 11.929688 20.253906 13.035156 19.988281 C 13.371094 21.367188 13.785156 22.757813 14.269531 24.152344 C 11.359375 29.53125 9.933594 34.234375 10 38.03125 C 10.039063 40.292969 10.316406 42.808594 12.511719 44.234375 C 13.816406 45.082031 15.363281 45.191406 16.582031 44.953125 C 17.800781 44.714844 18.820313 44.238281 19.765625 43.847656 C 20.445313 43.589844 20.933594 42.980469 21.035156 42.257813 C 21.140625 41.539063 20.84375 40.816406 20.257813 40.378906 C 19.675781 39.941406 18.902344 39.851563 18.234375 40.152344 C 17.230469 40.566406 16.386719 40.914063 15.816406 41.027344 C 15.246094 41.140625 15.0625 41.121094 14.6875 40.878906 C 14.539063 40.78125 14.03125 39.742188 14 37.96875 C 13.964844 35.839844 14.679688 32.765625 16.308594 29.082031 C 18.878906 34.410156 22.101563 38.898438 25.324219 41.933594 C 26.953125 43.46875 28.578125 44.648438 30.234375 45.347656 C 31.894531 46.046875 33.75 46.289063 35.386719 45.457031 L 35.496094 45.402344 L 35.597656 45.332031 C 37.148438 44.285156 37.675781 42.570313 37.886719 40.875 C 38.09375 39.183594 37.980469 37.3125 37.707031 35.363281 C 37.164063 31.460938 35.960938 27.269531 34.875 24.3125 C 34.648438 23.617188 34.0625 23.101563 33.34375 22.964844 C 32.621094 22.832031 31.886719 23.101563 31.425781 23.667969 C 30.960938 24.234375 30.847656 25.011719 31.125 25.6875 C 32.109375 28.382813 33.261719 32.4375 33.746094 35.917969 C 33.988281 37.65625 34.054688 39.257813 33.917969 40.386719 C 33.789063 41.414063 33.511719 41.761719 33.40625 41.871094 C 33.136719 41.972656 32.710938 42.050781 31.796875 41.660156 C 30.789063 41.238281 29.460938 40.332031 28.066406 39.019531 C 25.277344 36.390625 22.199219 32.160156 19.804688 27.140625 C 19.386719 26.265625 19.015625 25.375 18.664063 24.480469 C 19.144531 23.644531 19.664063 22.792969 20.230469 21.921875 C 20.890625 20.90625 21.574219 19.929688 22.265625 19.003906 C 23.183594 19.007813 24.125 19.03125 25.089844 19.078125 C 30.65625 19.371094 35.726563 20.546875 39.214844 22.066406 C 40.957031 22.828125 42.296875 23.683594 43.082031 24.4375 C 43.867188 25.1875 44.015625 25.699219 44 25.992188 C 43.964844 26.683594 43.226563 27.554688 41.4375 28.078125 C 40.378906 28.390625 39.769531 29.503906 40.078125 30.5625 C 40.390625 31.621094 41.503906 32.230469 42.5625 31.921875 C 45.320313 31.113281 47.84375 29.15625 48 26.203125 C 48.09375 24.382813 47.140625 22.789063 45.851563 21.546875 C 44.5625 20.308594 42.851563 19.289063 40.8125 18.402344 C 36.78125 16.644531 31.425781 15.433594 25.523438 15.101563 C 26.464844 14.089844 27.402344 13.175781 28.3125 12.394531 C 30.949219 10.121094 33.425781 8.992188 34.574219 8.949219 C 34.996094 8.933594 35.207031 9.011719 35.375 9.117188 C 35.726563 9.347656 35.820313 9.511719 35.863281 9.945313 C 35.90625 10.375 35.777344 11.109375 35.265625 12.007813 C 34.890625 12.628906 34.886719 13.402344 35.246094 14.03125 C 35.605469 14.65625 36.277344 15.042969 37.003906 15.035156 C 37.726563 15.027344 38.390625 14.628906 38.734375 13.992188 C 39.554688 12.558594 39.992188 11.050781 39.84375 9.554688 C 39.699219 8.0625 38.859375 6.613281 37.550781 5.765625 C 36.609375 5.152344 35.496094 4.914063 34.421875 4.953125 C 31.53125 5.0625 28.695313 6.78125 25.703125 9.363281 C 23.894531 10.917969 22.0625 12.835938 20.285156 15.035156 C 18.886719 15.085938 17.53125 15.191406 16.238281 15.351563 C 16.082031 14.167969 16 13.039063 16 12 C 16 9.699219 16.488281 8.632813 16.78125 8.21875 C 16.855469 8.113281 16.867188 8.121094 16.914063 8.078125 C 18.09375 8.148438 18.53125 8.523438 19.703125 9.523438 C 20.542969 10.238281 21.804688 10.140625 22.523438 9.300781 C 23.238281 8.457031 23.140625 7.195313 22.296875 6.476563 C 21.019531 5.386719 19.257813 4.011719 16.597656 4.011719 Z M 17.1875 19.28125 C 17.144531 19.347656 17.097656 19.417969 17.050781 19.484375 C 17.035156 19.425781 17.011719 19.359375 17 19.296875 C 17.0625 19.292969 17.125 19.285156 17.1875 19.28125 Z M 25 22 C 23.34375 22 22 23.34375 22 25 C 22 26.65625 23.34375 28 25 28 C 26.65625 28 28 26.65625 28 25 C 28 23.34375 26.65625 22 25 22 Z" fill="#000000"/></svg>
