<svg width="25" height="24" viewBox="0 0 25 24" fill="none" xmlns="http://www.w3.org/2000/svg">
<path fill-rule="evenodd" clip-rule="evenodd" d="M11.907 8.293L7.90696 4.293C7.81496 4.201 7.70396 4.128 7.58196 4.077C7.33796 3.976 7.06196 3.976 6.81796 4.077C6.69596 4.128 6.58496 4.201 6.49296 4.293L2.49296 8.293C2.10196 8.684 2.10196 9.316 2.49296 9.707C2.88396 10.098 3.51596 10.098 3.90696 9.707L6.19996 7.414V19C6.19996 19.552 6.64796 20 7.19996 20C7.75196 20 8.19996 19.552 8.19996 19V7.414L10.493 9.707C10.688 9.902 10.944 10 11.2 10C11.456 10 11.712 9.902 11.907 9.707C12.298 9.316 12.298 8.684 11.907 8.293ZM21.907 14.293C21.516 13.902 20.884 13.902 20.493 14.293L18.2 16.586V5C18.2 4.448 17.752 4 17.2 4C16.648 4 16.2 4.448 16.2 5V16.586L13.907 14.293C13.516 13.902 12.884 13.902 12.493 14.293C12.102 14.684 12.102 15.316 12.493 15.707L16.493 19.707C16.585 19.799 16.696 19.872 16.818 19.923C16.94 19.974 17.07 20 17.2 20C17.33 20 17.46 19.974 17.582 19.923C17.704 19.872 17.815 19.799 17.907 19.707L21.907 15.707C22.298 15.316 22.298 14.684 21.907 14.293Z" fill="#2E2D37"/>
</svg>
