<svg width="24" height="25" viewBox="0 0 24 25" fill="none" xmlns="http://www.w3.org/2000/svg">
<path fill-rule="evenodd" clip-rule="evenodd" d="M16 5.90088C16.552 5.90088 17 6.34988 17 6.90088C17 7.45188 16.552 7.90088 16 7.90088C15.448 7.90088 15 7.45188 15 6.90088C15 6.34988 15.448 5.90088 16 5.90088ZM4 7.90088H13.185C13.599 9.06288 14.698 9.90088 16 9.90088C17.302 9.90088 18.401 9.06288 18.815 7.90088H20C20.553 7.90088 21 7.45288 21 6.90088C21 6.34888 20.553 5.90088 20 5.90088H18.815C18.401 4.73888 17.302 3.90088 16 3.90088C14.698 3.90088 13.599 4.73888 13.185 5.90088H4C3.447 5.90088 3 6.34888 3 6.90088C3 7.45288 3.447 7.90088 4 7.90088ZM8 13.9009C7.448 13.9009 7 13.4519 7 12.9009C7 12.3499 7.448 11.9009 8 11.9009C8.552 11.9009 9 12.3499 9 12.9009C9 13.4519 8.552 13.9009 8 13.9009ZM20 11.9009H10.815C10.401 10.7389 9.302 9.90088 8 9.90088C6.698 9.90088 5.599 10.7389 5.185 11.9009H4C3.447 11.9009 3 12.3489 3 12.9009C3 13.4529 3.447 13.9009 4 13.9009H5.185C5.599 15.0629 6.698 15.9009 8 15.9009C9.302 15.9009 10.401 15.0629 10.815 13.9009H20C20.553 13.9009 21 13.4529 21 12.9009C21 12.3489 20.553 11.9009 20 11.9009ZM16 19.9009C15.448 19.9009 15 19.4519 15 18.9009C15 18.3499 15.448 17.9009 16 17.9009C16.552 17.9009 17 18.3499 17 18.9009C17 19.4519 16.552 19.9009 16 19.9009ZM20 17.9009H18.815C18.401 16.7389 17.302 15.9009 16 15.9009C14.698 15.9009 13.599 16.7389 13.185 17.9009H4C3.447 17.9009 3 18.3489 3 18.9009C3 19.4529 3.447 19.9009 4 19.9009H13.185C13.599 21.0629 14.698 21.9009 16 21.9009C17.302 21.9009 18.401 21.0629 18.815 19.9009H20C20.553 19.9009 21 19.4529 21 18.9009C21 18.3489 20.553 17.9009 20 17.9009Z" fill="#2E2D37"/>
</svg>
