<?xml version="1.0" encoding="utf-8"?>
<svg xmlns="http://www.w3.org/2000/svg" viewBox="0 0 50 50" fill="#000000"><path d="M 20.71875 0 C 18.195313 0 15.351563 0.527344 12.28125 1.5625 C 1.03125 5.417969 0.0351563 11.402344 0 11.65625 L -0.03125 11.90625 L 0.0625 12.125 C 4.601563 25.832031 11.285156 31.292969 16.125 33.46875 C 16.441406 30.734375 17.160156 27.671875 18.46875 24.25 C 16.199219 25.417969 15.472656 27.105469 15.4375 27.1875 C 15.277344 27.570313 14.890625 27.78125 14.5 27.78125 C 14.371094 27.78125 14.25 27.769531 14.125 27.71875 C 13.617188 27.507813 13.355469 26.945313 13.5625 26.4375 C 13.613281 26.308594 14.890625 23.277344 18.96875 21.84375 C 19.15625 21.785156 19.34375 21.765625 19.53125 21.71875 C 20.28125 20.035156 21.148438 18.28125 22.1875 16.4375 L 22.5625 15.78125 L 22.96875 15.5 L 23.1875 15.375 C 23.535156 15.148438 25.4375 14.03125 28.875 14.03125 C 29.511719 14.03125 30.152344 14.082031 30.8125 14.15625 C 30.457031 10.40625 29.613281 6.511719 28.25 2.5625 L 28.15625 2.34375 L 28 2.1875 C 27.910156 2.097656 25.765625 0 20.71875 0 Z M 19.40625 12.3125 C 20.167969 12.289063 21.148438 12.304688 22 12.40625 C 23.898438 12.605469 25.5 13.3125 25.5 13.3125 C 25.5 13.3125 23.195313 15.886719 21.59375 15.6875 C 19.292969 15.386719 18.09375 12.40625 18.09375 12.40625 C 18.09375 12.40625 18.644531 12.335938 19.40625 12.3125 Z M 14 13.6875 C 14 13.6875 14.789063 16.800781 13.1875 18.5 C 12.085938 19.699219 8.6875 18.90625 8.6875 18.90625 C 8.6875 18.90625 9.507813 17.492188 10.90625 16.09375 C 12.105469 14.894531 14 13.6875 14 13.6875 Z M 28.875 16.03125 C 25.9375 16.03125 24.414063 16.957031 24.25 17.0625 L 24.0625 17.1875 L 23.9375 17.40625 C 11.480469 39.464844 22.074219 49.070313 22.53125 49.46875 L 22.71875 49.59375 L 22.90625 49.65625 C 22.953125 49.671875 24.105469 50.03125 26 50.03125 C 31.050781 50.03125 40.886719 47.671875 49.875 31.90625 L 50 31.6875 L 50 31.46875 C 50.011719 31.210938 50.199219 25.171875 39.875 19.4375 C 35.855469 17.183594 32.167969 16.03125 28.875 16.03125 Z M 28.71875 25.625 C 29.289063 25.632813 29.863281 25.75 30.3125 26 C 31.8125 26.898438 32.40625 29.6875 32.40625 29.6875 C 32.40625 29.6875 30.394531 28.988281 28.59375 28.1875 C 26.695313 27.386719 25.09375 26.40625 25.09375 26.40625 C 25.09375 26.40625 27.003906 25.597656 28.71875 25.625 Z M 37.21875 30.625 C 37.914063 30.582031 38.625 30.664063 39.1875 31 C 40.988281 32 41.59375 35.6875 41.59375 35.6875 C 41.59375 35.6875 39.886719 34.886719 38.1875 33.6875 L 35 31.09375 C 35 31.09375 36.0625 30.699219 37.21875 30.625 Z M 24.5 31.90625 C 24.5 31.90625 27.695313 35.386719 30.09375 36.6875 C 32.492188 37.988281 37.1875 39 37.1875 39 C 37.1875 39 31.304688 44.90625 26.90625 42.40625 C 22.507813 39.90625 24.5 31.90625 24.5 31.90625 Z" fill="#000000"/></svg>
