<?xml version="1.0" encoding="utf-8"?>
<svg xmlns="http://www.w3.org/2000/svg" viewBox="0 0 50 50" fill="#000000"><path d="M 25 0 C 22.453125 0 20.3125 2.140625 20.3125 4.6875 C 20.3125 5.0625 20.421875 5.546875 20.5625 6.03125 C 20.914063 6.710938 21.460938 7.445313 22.03125 8.15625 C 23.546875 10.046875 25.433594 12.375 23.46875 14.8125 C 23.269531 15.058594 22.980469 15.1875 22.6875 15.1875 C 22.46875 15.1875 22.246094 15.117188 22.0625 14.96875 C 21.632813 14.621094 21.589844 13.992188 21.9375 13.5625 C 22.277344 13.140625 22.375 12.722656 22.28125 12.25 C 20.832031 12.578125 19.4375 13.144531 18.15625 13.9375 C 18.171875 14.066406 18.1875 14.207031 18.21875 14.3125 C 18.304688 14.605469 18.417969 14.710938 18.4375 14.71875 C 18.449219 14.722656 18.550781 14.71875 18.71875 14.625 C 19.203125 14.355469 19.796875 14.546875 20.0625 15.03125 C 20.328125 15.515625 20.171875 16.109375 19.6875 16.375 C 19.277344 16.601563 18.867188 16.71875 18.46875 16.71875 C 17.875 16.71875 17.292969 16.480469 16.875 16 C 15.984375 14.980469 15.933594 13.132813 16.59375 11.5625 C 16.601563 11.539063 16.59375 11.527344 16.59375 11.5 L 16.625 11.34375 C 16.714844 11 16.8125 10.648438 16.8125 10.1875 C 16.8125 7.640625 14.640625 5.5 12.09375 5.5 C 9.546875 5.5 7.40625 7.640625 7.40625 10.1875 C 7.40625 12.121094 8.582031 13.828125 10.34375 14.53125 C 10.6875 14.632813 11.054688 14.726563 11.4375 14.8125 C 13.320313 15.230469 15.921875 15.8125 16.5 19.03125 C 16.511719 19.089844 16.5 19.253906 16.5 19.3125 C 16.5 19.863281 16.050781 20.3125 15.5 20.3125 C 14.949219 20.3125 14.5 19.863281 14.5 19.3125 C 14.410156 18.808594 14.238281 18.433594 14 18.125 C 12.699219 20.191406 12 22.53125 12 25 C 12 25.859375 12.117188 26.714844 12.21875 27.53125 L 12.25 27.53125 C 12.277344 27.78125 12.191406 27.941406 12 28.09375 C 11.636719 28.394531 11.0625 28.460938 10.84375 28.40625 C 10.082031 27.921875 9.332031 27.6875 8.40625 27.6875 C 5.859375 27.6875 3.6875 29.859375 3.6875 32.40625 C 3.6875 34.953125 5.859375 37.09375 8.40625 37.09375 C 9.859375 37.09375 11.273438 36.40625 12.21875 35.1875 C 12.871094 34.265625 13.757813 33.605469 14.46875 33.53125 C 14.800781 33.496094 15.058594 33.609375 15.3125 33.84375 C 15.394531 33.921875 15.496094 33.957031 15.59375 34 C 17.671875 36.085938 20.273438 37.410156 23.0625 37.84375 C 23.304688 37.21875 23.195313 36.511719 22.5 35.59375 C 22.167969 35.152344 22.246094 34.523438 22.6875 34.1875 C 23.128906 33.855469 23.761719 33.96875 24.09375 34.40625 C 26.671875 37.808594 24.167969 40.042969 22.78125 41.125 C 22.722656 41.1875 22.652344 41.265625 22.59375 41.3125 C 21.175781 42.148438 20.3125 43.660156 20.3125 45.3125 C 20.3125 47.859375 22.453125 50 25 50 C 27.546875 50 29.6875 47.859375 29.6875 45.3125 C 29.6875 45.117188 29.667969 44.894531 29.65625 44.6875 C 29.457031 43.316406 28.671875 41.515625 27.96875 39.90625 C 26.765625 37.167969 25.90625 35.179688 27.15625 34.125 C 27.578125 33.769531 28.207031 33.828125 28.5625 34.25 C 28.886719 34.636719 28.886719 35.195313 28.5625 35.5625 C 28.539063 35.878906 28.761719 36.585938 29.0625 37.34375 C 31.898438 36.371094 34.300781 34.507813 35.9375 32 C 35.789063 31.835938 35.652344 31.675781 35.5 31.59375 C 35.304688 31.488281 35.140625 31.460938 34.9375 31.53125 C 34.414063 31.710938 33.835938 31.457031 33.65625 30.9375 C 33.476563 30.414063 33.761719 29.835938 34.28125 29.65625 C 35.011719 29.402344 35.75 29.46875 36.4375 29.84375 C 38.351563 30.878906 39.109375 34.03125 39.59375 35 C 40.078125 35.96875 41.902344 37.1875 43.5 37.1875 C 46.046875 37.1875 48.1875 35.046875 48.1875 32.5 C 48.1875 29.953125 46.046875 27.8125 43.5 27.8125 C 42.882813 27.8125 42.15625 27.863281 41.71875 28.15625 C 41.28125 28.449219 39.4375 29.3125 38.28125 29.3125 C 37.148438 29.3125 36.066406 28.984375 35.25 28.4375 C 34.789063 28.128906 34.660156 27.492188 34.96875 27.03125 C 35.273438 26.570313 35.882813 26.476563 36.34375 26.78125 C 36.746094 27.050781 37.273438 27.214844 37.8125 27.28125 C 37.9375 26.585938 38 25.847656 38 25 L 38 24.53125 C 38.003906 24.519531 38.027344 24.511719 38.03125 24.5 C 38.511719 24.039063 41.144531 23.023438 43.3125 23.375 C 43.660156 23.511719 43.996094 23.5 44.3125 23.5 C 46.40625 23.5 48.09375 21.78125 48.09375 19.6875 C 48.09375 17.578125 46.410156 16 44.1875 16 C 42.757813 16 41.535156 16.769531 40.9375 18 C 40.347656 18.761719 38.898438 19.34375 37.78125 19.3125 C 37.335938 19.296875 36.757813 19.167969 36.46875 18.6875 C 36.394531 18.5625 36.269531 18.453125 36.15625 18.375 C 34.503906 15.601563 31.882813 13.492188 28.875 12.5625 C 28.121094 12.253906 27.683594 11.816406 27.5 11.21875 C 27.164063 10.121094 27.785156 8.699219 28.125 8.1875 C 28.238281 8.023438 28.355469 7.839844 28.46875 7.6875 C 29.078125 6.863281 29.6875 6.011719 29.6875 4.6875 C 29.6875 2.140625 27.546875 0 25 0 Z M 37 6.09375 C 34.832031 6.09375 33 7.925781 33 10.09375 C 33 11.195313 32.804688 11.617188 32.75 11.71875 C 32.648438 11.804688 32.589844 11.914063 32.53125 12.03125 C 33.832031 12.800781 35.03125 13.746094 36.0625 14.875 C 36.210938 14.800781 36.335938 14.707031 36.4375 14.5625 C 36.59375 14.332031 36.875 14.09375 37 14.09375 C 39.167969 14.09375 41 12.261719 41 10.09375 C 41 7.886719 39.207031 6.09375 37 6.09375 Z M 28 17.5 C 29.933594 17.5 31.5 19.066406 31.5 21 C 31.5 22.933594 29.933594 24.5 28 24.5 C 26.066406 24.5 24.5 22.933594 24.5 21 C 24.5 19.066406 26.066406 17.5 28 17.5 Z M 5.59375 18.40625 C 3.496094 18.40625 1.8125 20.09375 1.8125 22.1875 C 1.8125 24.28125 3.496094 26 5.59375 26 C 6.15625 26 6.757813 25.839844 7.4375 25.5 C 8.339844 25.046875 9.117188 24.695313 10 24.875 C 10.015625 23.230469 10.300781 21.601563 10.84375 20.0625 C 10.605469 19.972656 10.332031 19.992188 10.09375 20.09375 C 10.09375 20.09375 10.03125 20.125 9.8125 20.125 C 9.257813 20.125 8.609375 19.882813 8.46875 19.75 C 7.730469 18.859375 6.730469 18.40625 5.59375 18.40625 Z M 20.5 26 C 21.882813 26 23 27.117188 23 28.5 C 23 29.882813 21.882813 31 20.5 31 C 19.117188 31 18 29.882813 18 28.5 C 18 27.117188 19.117188 26 20.5 26 Z M 29.3125 27.90625 C 30.304688 27.90625 31.09375 28.695313 31.09375 29.6875 C 31.09375 30.679688 30.304688 31.5 29.3125 31.5 C 28.320313 31.5 27.5 30.679688 27.5 29.6875 C 27.5 28.695313 28.320313 27.90625 29.3125 27.90625 Z M 36.0625 36 C 35.886719 36.007813 35.714844 36.058594 35.5625 36.15625 L 32.46875 38.15625 C 32.097656 38.394531 31.875 38.855469 32 39.28125 C 32.125 39.707031 32.464844 40 32.90625 40 C 33.132813 40.113281 33.6875 41.066406 33.6875 42.3125 C 33.6875 44.421875 35.296875 46 37.40625 46 C 39.445313 46 41.09375 44.351563 41.09375 42.3125 C 41.09375 40.140625 39.59375 39.246094 38.5 38.59375 C 37.476563 37.980469 37.09375 37.671875 37.09375 37 C 37.09375 36.632813 36.914063 36.300781 36.59375 36.125 C 36.433594 36.035156 36.238281 35.992188 36.0625 36 Z M 15.46875 36.5625 C 15.171875 37.15625 14.625 37.519531 14.4375 37.59375 C 12.410156 37.765625 11 39.234375 11 41.1875 C 11 43.285156 12.71875 45 14.8125 45 C 16.980469 45 18.59375 43.351563 18.59375 41.1875 C 18.59375 40.359375 19.265625 39.457031 19.65625 39 C 18.15625 38.425781 16.742188 37.59375 15.46875 36.5625 Z" fill="#000000"/></svg>
