<?xml version="1.0" encoding="UTF-8" standalone="no"?>
<!DOCTYPE svg PUBLIC "-//W3C//DTD SVG 1.1//EN" "http://www.w3.org/Graphics/SVG/1.1/DTD/svg11.dtd">
<svg xmlns="http://www.w3.org/2000/svg" xmlns:xlink="http://www.w3.org/1999/xlink" version="1.1" width="28pt" height="28pt" viewBox="0 0 28 28">
<g enable-background="new">
<clipPath id="cp0">
<path transform="matrix(1,0,0,-1,0,28)" d="M -58 -686 L 692 -686 L 692 938 L -58 938 Z "/>
</clipPath>
<g clip-path="url(#cp0)">
<path transform="matrix(2,0,0,2,8.967742,10.51613)" stroke-width="1" stroke-linecap="round" stroke-linejoin="round" fill="none" stroke="#00d6a6" d="M 5.032258 0 L 1.258046 3.483871 L 0 2.239621 "/>
<path transform="matrix(2,0,0,2,2,2)" stroke-width="1" stroke-linecap="round" stroke-linejoin="round" fill="none" stroke="#00d6a6" d="M 12 6 C 12 9.31409 9.313045 12 6 12 C 2.68591 12 0 9.31409 0 6 C 0 2.68591 2.68591 0 6 0 C 9.313045 0 12 2.68591 12 6 Z "/>
</g>
</g>
</svg>
