<?xml version="1.0" encoding="utf-8"?>
<svg xmlns="http://www.w3.org/2000/svg" viewBox="0 0 50 50" fill="#000000"><path d="M 24.714844 2 C 22.449219 2.023438 20.15625 2.390625 17.890625 3.125 C 5.824219 7.046875 -0.796875 20.039063 3.125 32.109375 C 7.046875 44.175781 20.039063 50.796875 32.109375 46.875 C 44.117188 42.972656 50.710938 30.089844 46.914063 18.074219 C 46.90625 18.011719 46.894531 17.949219 46.875 17.890625 C 43.933594 8.839844 35.890625 2.855469 26.960938 2.082031 C 26.21875 2.019531 25.46875 1.988281 24.714844 2 Z M 19.6875 4.6875 L 24.027344 7.390625 L 24.027344 15.707031 L 16.53125 21.152344 C 16.511719 21.140625 16.492188 21.136719 16.46875 21.128906 L 8.539063 18.578125 L 7.320313 13.664063 C 9.847656 9.71875 13.703125 6.589844 18.511719 5.027344 C 18.902344 4.898438 19.292969 4.789063 19.6875 4.6875 Z M 30.308594 4.6875 C 35.339844 6.003906 39.800781 9.167969 42.679688 13.660156 L 41.449219 18.625 L 33.46875 21.152344 L 26.027344 15.746094 L 26.027344 7.359375 Z M 7.949219 20.488281 L 15.859375 23.03125 C 15.878906 23.039063 15.898438 23.046875 15.921875 23.050781 L 18.769531 31.828125 L 13.800781 38.667969 L 8.757813 38.3125 C 7.144531 36.34375 5.859375 34.054688 5.027344 31.488281 C 4.195313 28.921875 3.886719 26.316406 4.03125 23.78125 Z M 42.089844 20.515625 L 45.96875 23.78125 C 46.285156 29.113281 44.527344 34.289063 41.230469 38.3125 L 36.144531 38.671875 L 31.234375 31.816406 L 34.078125 23.054688 Z M 20.390625 33 L 29.621094 33 L 34.542969 39.871094 L 32.640625 44.558594 C 32.265625 44.707031 31.882813 44.84375 31.488281 44.972656 C 26.679688 46.535156 21.722656 46.269531 17.359375 44.5625 L 15.4375 39.816406 Z" fill="#000000"/></svg>
