<?xml version="1.0" encoding="utf-8"?>
<svg xmlns="http://www.w3.org/2000/svg" viewBox="0 0 50 50" fill="#000000"><path d="M 15 8 C 14.868 8 11.739734 8.0124687 9.5527344 9.1054688 C 8.9457344 9.4094688 8.5826719 9.4885937 8.2636719 9.5585938 C 7.2846719 9.7735937 6.8354688 10.091734 6.1054688 11.552734 C 4.9704687 13.823734 4.207 14 4 14 C 1.346 14 7.471801e-17 15.009 0 17 C 0 18.351 0.404125 19.203156 1.203125 19.535156 C 1.631125 19.712156 2.5045156 19.847641 3.6035156 18.806641 C 4.2835156 18.929641 5.858 20.474 6 21 C 6 21.127 5.9532969 21.311812 5.9042969 21.507812 C 5.7042969 22.303812 5.3347344 23.785531 7.5527344 24.894531 C 8.2177344 25.226531 8.3234531 25.650406 8.4394531 26.316406 C 8.5284531 26.820406 8.7334688 27.998047 9.9804688 27.998047 L 9.9824219 27.998047 C 10.342422 28.044047 11.442969 28.859031 12.292969 29.707031 C 12.480969 29.896031 12.736 30 13 30 C 13.039 30 13.078141 29.997141 13.119141 29.994141 C 13.423141 29.957141 13.694516 29.783484 13.853516 29.521484 C 14.386516 28.646484 14.992812 26.769063 13.882812 25.289062 C 13.769813 25.138062 13.675703 25.006578 13.595703 24.892578 C 13.958703 24.885578 14.318953 24.831391 14.626953 24.525391 C 15.008953 24.145391 15.004953 23.688078 15.001953 23.205078 L 15 23 C 15 22.357 15.698 21.117 16 21 C 16.42 21 16.795641 20.843547 17.056641 20.560547 C 17.291641 20.303547 17.414062 19.966891 17.414062 19.587891 C 17.414063 18.571891 16.382641 17.005859 15.056641 17.005859 L 15.048828 17.005859 C 14.987828 16.985859 14.908031 16.917078 14.832031 16.830078 C 15.195031 16.665078 15.474953 16.384625 15.626953 16.015625 C 15.957953 15.216625 15.613375 14.199078 14.734375 13.330078 C 14.596375 12.984078 15.113156 11.665906 15.785156 10.628906 C 16.162156 10.228906 16.655562 9.5191562 16.351562 8.7851562 C 16.253563 8.5491563 15.926 8 15 8 z M 22 9 C 21.43 9 18.522969 9.0619687 17.292969 10.292969 C 16.386969 11.197969 15.533312 12.052875 15.945312 13.046875 C 16.340313 13.999875 17.546 14 18 14 C 18.122 14 18.199094 14.010484 18.246094 14.021484 C 18.274094 14.234484 18.184812 14.708562 18.132812 14.976562 C 18.067813 15.316563 18 15.669 18 16 C 18 16.673 17.999766 17.689641 18.884766 18.056641 C 19.053766 18.126641 19.222578 18.160156 19.392578 18.160156 C 20.095578 18.160156 20.822031 17.592031 21.707031 16.707031 C 23.831031 14.583031 24 13.368 24 12 C 24 11.026 24 9 22 9 z M 15.021484 9.9765625 L 15.021484 10 C 15.015484 10 15.008953 9.9990469 15.001953 9.9980469 C 15.002179 9.9978211 15.019021 9.979075 15.021484 9.9765625 z M 37.679688 11 C 35.194687 11 32.268813 12.791609 30.132812 14.099609 C 29.785812 14.311609 29.462922 14.509594 29.169922 14.683594 C 28.671922 14.152594 28.116688 13.949906 27.679688 13.878906 C 26.364687 13.668906 25.040422 14.475781 24.232422 15.300781 C 23.236422 16.316781 23.472906 17.788594 23.753906 18.683594 C 22.794906 19.510594 21.324266 21.016 21.447266 22.375 C 21.507266 23.025 21.892203 23.563625 22.533203 23.890625 C 24.234203 24.756625 25.687953 24.072078 26.501953 23.205078 C 26.570953 23.232078 26.636453 23.268359 26.689453 23.318359 C 26.851453 23.474359 26.884766 23.775 26.884766 24 C 26.884766 24.893165 27.267976 25.736771 27.832031 26.435547 C 27.330546 26.272279 26.79062 26.124563 26.173828 26.015625 C 26.115828 26.004625 26.059 26 26 26 C 24.271 26 21 27.096187 21 31.242188 C 21 32.148188 21.102188 33.430328 21.992188 34.111328 C 22.847188 34.769328 23.886578 34.488156 24.642578 34.285156 C 24.861578 34.227156 25.17675 34.143813 25.34375 34.132812 C 26.00075 34.979813 26 37.24 26 38 C 26 40.309 26.177531 41.551547 27.144531 41.935547 C 27.243531 41.974547 27.403516 42.021484 27.603516 42.021484 C 27.912516 42.021484 28.315516 41.909656 28.728516 41.472656 C 30.748516 39.329656 32.001953 37.758922 32.001953 36.544922 C 32.001953 36.038922 31.858422 35.583594 31.732422 35.183594 C 31.499422 34.440594 31.499516 34.291828 31.728516 34.048828 C 32.496516 33.233828 32.712906 31.699453 32.253906 30.314453 C 32.064669 29.744062 31.66849 28.979234 30.929688 28.238281 C 31.555681 28.27782 32.114675 28.110022 32.517578 27.699219 C 32.531578 27.684219 32.544594 27.67125 32.558594 27.65625 C 33.496594 30.00025 34.395234 30 34.740234 30 C 35.293234 30 35.740234 29.553 35.740234 29 C 35.740234 28.766 35.756297 28.581547 35.779297 28.435547 C 36.600297 29.161547 37.746203 30 38.658203 30 C 39.340203 30 39.915219 29.599734 40.199219 28.927734 C 40.479219 28.259734 40.453641 27.404953 40.181641 26.626953 C 40.984641 26.148953 41.453031 25.214125 41.582031 23.828125 C 42.452031 23.515125 43.190141 22.782672 43.619141 21.763672 C 44.023141 20.801672 44.067437 19.8235 43.773438 19.0625 C 44.569438 18.4255 46.155875 18.939312 46.171875 18.945312 C 46.427875 19.033312 46.706266 19.014625 46.947266 18.890625 C 48.087266 18.308625 50 17.118312 50 15.695312 C 50 15.311312 49.85725 14.595375 48.90625 14.109375 C 47.31625 13.297375 42.77825 13.079484 40.28125 13.021484 C 40.31925 12.743484 40.295828 12.451156 40.173828 12.160156 C 39.850828 11.390156 39.011688 11 37.679688 11 z M 14.314453 29.841797 C 13.961602 29.838111 13.566469 29.910984 13.183594 30.146484 C 12.397594 30.632484 12 31.592 12 33 C 12 34.946 12.420672 35.950797 12.888672 36.466797 C 12.594672 37.970797 12 41.125 12 42 C 12 43.369 13.267 46 15 46 C 15.689 46 16.046609 45.693594 16.224609 45.433594 C 16.629609 44.845594 16.384078 44.202422 16.205078 43.732422 C 16.108078 43.481422 16 43.197 16 43 C 16 42.079 16.000031 41.414031 16.707031 40.707031 C 17.812031 39.602031 20 35.34 20 34 C 20 33.6 19.999266 32.382469 15.447266 30.105469 C 15.369141 30.067344 14.902539 29.847939 14.314453 29.841797 z M 41 30 C 41 30 39 31 40 32 C 41 33 43 31 44 32 C 45 33 45 34 46 34 C 47 34 45 31 44 31 C 43 31 41 30 41 30 z M 33.427734 33.75 C 33.300937 33.753891 33.17175 33.874875 33.0625 34.140625 C 33.0625 34.140625 32.313 35.140625 32.625 35.890625 C 32.937 36.640625 32.3125 37.828625 32.5625 38.140625 C 32.8125 38.452625 33.6255 37.952625 33.9375 36.140625 C 34.1715 34.781625 33.808125 33.738328 33.427734 33.75 z M 43.335938 34.611328 C 42.778437 34.626328 42.182734 34.790969 41.552734 35.105469 C 38.788734 36.487469 37.531656 38.485312 38.347656 40.195312 C 39.256656 42.104312 41.092609 41.452672 41.974609 41.138672 C 42.219609 41.051672 42.589109 40.919109 42.662109 40.912109 C 42.808109 40.969109 43.134078 41.332828 43.330078 41.548828 C 43.810078 42.078828 44.396031 42.726562 45.207031 42.726562 C 45.276031 42.726563 45.349875 42.722891 45.421875 42.712891 C 46.290875 42.593891 46.719953 41.795422 46.876953 41.482422 C 47.626953 40.212422 47.388531 38.640734 46.894531 37.552734 C 46.423531 36.611734 45.818625 35.574578 44.890625 35.017578 C 44.413625 34.731078 43.893438 34.596328 43.335938 34.611328 z" fill="#000000"/></svg>
